{"title":"Lucky Luke 1983 DVDrip Dutch Spoken Klam","uid":5794598,"size":1054956911,"categoryP":"video","categoryS":"movies","magnet":"?xt=urn:btih:07ee05fe19243f5a3688cf1e614873b659ddf007&amp;dn=Lucky+Luke+1983+DVDrip+Dutch+Spoken+Klam&amp;tr=udp%3A%2F%2Ftracker.openbittorrent.com%3A80&amp;tr=udp%3A%2F%2Fopen.demonii.com%3A1337&amp;tr=udp%3A%2F%2Ftracker.coppersurfer.tk%3A6969&amp;tr=udp%3A%2F%2Fexodus.desync.com%3A6969","seeders":1,"leechers":0,"uploader":"Klambake","files":-1,"time":1282995975,"description":"The Dalton brothers escape from jail and head for Canada. On the way they change their names to the Jones brothers: Frank, Louis, Robert and Stupid. The Luckster is continually on their trail, with some help from that stupid dog Rataplan, complaining horse Jolly Jumper and useless character Col Pentegras of the royal Canadian mounties. Soon the Daltons are robbing Canadian banks like there is no tomorrow.\n\nDutch Spoken!\n\nGeneral:\n\nComplete name                    : \\Lucky Luke\\Lucky Luke.avi\nFormat                           : AVI\nFormat/Info                      : Audio Video Interleave\nFile size                        : 1 004 MiB\nDuration                         : 1h 20mn\nOverall bit rate                 : 1 744 Kbps\n\nVideo:\n\nFormat                           : MPEG-4 Visual\nFormat profile                   : Simple@L3\nFormat settings, BVOP            : No\nFormat settings, QPel            : No\nFormat settings, GMC             : No warppoints\nFormat settings, Matrix          : Default (H.263)\nCodec ID                         : XVID\nCodec ID/Hint                    : XviD\nDuration                         : 1h 20mn\nBit rate                         : 1 541 Kbps\nWidth                            : 720 pixels\nHeight                           : 400 pixels\nDisplay aspect ratio             : 16:9\nFrame rate                       : 25.000 fps\nColor space                      : YUV\nChroma subsampling               : 4:2:0\nBit depth                        : 8 bits\nScan type                        : Progressive\nBits/(Pixel*Frame)               : 0.214\nStream size                      : 887 MiB (88%)\nWriting library                  : XviD 1.1.2 (UTC 2006-11-01)\n\nAudio:\n\nFormat                           : AC-3\nFormat/Info                      : Audio Coding 3\nMode extension                   : CM (complete main)\nCodec ID                         : 2000\nDuration                         : 1h 20mn\nBit rate mode                    : Constant\nBit rate                         : 192 Kbps\nChannel(s)                       : 2 channels\nChannel positions                : Front: L R\nSampling rate                    : 48.0 KHz\nStream size                      : 111 MiB (11%)\nAlignment                        : Aligned on interleaves\nInterleave, duration             : 32 ms (0.80 video frame)\nInterleave, preload duration     : 32 ms","torrent":{"xt":"urn:btih:07ee05fe19243f5a3688cf1e614873b659ddf007","amp;dn":"Lucky+Luke+1983+DVDrip+Dutch+Spoken+Klam","amp;tr":["udp%3A%2F%2Ftracker.openbittorrent.com%3A80","udp%3A%2F%2Fopen.demonii.com%3A1337","udp%3A%2F%2Ftracker.coppersurfer.tk%3A6969","udp%3A%2F%2Fexodus.desync.com%3A6969"],"infoHash":"07ee05fe19243f5a3688cf1e614873b659ddf007","infoHashBuffer":{"type":"Buffer","data":[7,238,5,254,25,36,63,90,54,136,207,30,97,72,115,182,89,221,240,7]},"announce":[],"urlList":[]}}